<mxfile host="app.diagrams.net" modified="2022-08-05T01:58:33.443Z" agent="5.0 (Windows NT 10.0; WOW64) AppleWebKit/537.36 (KHTML, like Gecko) Chrome/103.0.0.0 Safari/537.36" etag="DIbJauGSZeBOB5YnaBCw" version="20.2.2" type="github">
  <diagram name="Page-1" id="13e1069c-82ec-6db2-03f1-153e76fe0fe0">
    <mxGraphModel dx="1662" dy="762" grid="1" gridSize="10" guides="1" tooltips="1" connect="1" arrows="1" fold="1" page="1" pageScale="1" pageWidth="1100" pageHeight="850" background="none" math="0" shadow="0">
      <root>
        <mxCell id="0" />
        <mxCell id="1" parent="0" />
        <mxCell id="mKk2eRb5SQ4jt9OMgVqi-21" value="" style="edgeStyle=orthogonalEdgeStyle;rounded=0;orthogonalLoop=1;jettySize=auto;html=1;" edge="1" parent="1" source="mKk2eRb5SQ4jt9OMgVqi-19" target="mKk2eRb5SQ4jt9OMgVqi-20">
          <mxGeometry relative="1" as="geometry" />
        </mxCell>
        <mxCell id="mKk2eRb5SQ4jt9OMgVqi-19" value="提交试题答案" style="ellipse;whiteSpace=wrap;html=1;" vertex="1" parent="1">
          <mxGeometry x="200" y="110" width="120" height="70" as="geometry" />
        </mxCell>
        <mxCell id="mKk2eRb5SQ4jt9OMgVqi-23" style="edgeStyle=orthogonalEdgeStyle;rounded=0;orthogonalLoop=1;jettySize=auto;html=1;" edge="1" parent="1" source="mKk2eRb5SQ4jt9OMgVqi-20" target="mKk2eRb5SQ4jt9OMgVqi-22">
          <mxGeometry relative="1" as="geometry" />
        </mxCell>
        <mxCell id="mKk2eRb5SQ4jt9OMgVqi-26" value="" style="edgeStyle=orthogonalEdgeStyle;rounded=0;orthogonalLoop=1;jettySize=auto;html=1;" edge="1" parent="1" source="mKk2eRb5SQ4jt9OMgVqi-20" target="mKk2eRb5SQ4jt9OMgVqi-25">
          <mxGeometry relative="1" as="geometry" />
        </mxCell>
        <mxCell id="mKk2eRb5SQ4jt9OMgVqi-20" value="登陆状态校验、&lt;br&gt;参数校验" style="rhombus;whiteSpace=wrap;html=1;" vertex="1" parent="1">
          <mxGeometry x="200" y="230" width="120" height="60" as="geometry" />
        </mxCell>
        <mxCell id="mKk2eRb5SQ4jt9OMgVqi-22" value="结束" style="ellipse;whiteSpace=wrap;html=1;" vertex="1" parent="1">
          <mxGeometry x="510" y="115" width="120" height="65" as="geometry" />
        </mxCell>
        <mxCell id="mKk2eRb5SQ4jt9OMgVqi-24" value="不通过" style="text;html=1;align=center;verticalAlign=middle;resizable=0;points=[];autosize=1;strokeColor=none;fillColor=none;" vertex="1" parent="1">
          <mxGeometry x="400" y="235" width="60" height="30" as="geometry" />
        </mxCell>
        <mxCell id="mKk2eRb5SQ4jt9OMgVqi-27" style="edgeStyle=orthogonalEdgeStyle;rounded=0;orthogonalLoop=1;jettySize=auto;html=1;" edge="1" parent="1" source="mKk2eRb5SQ4jt9OMgVqi-25" target="mKk2eRb5SQ4jt9OMgVqi-22">
          <mxGeometry relative="1" as="geometry" />
        </mxCell>
        <mxCell id="mKk2eRb5SQ4jt9OMgVqi-30" value="" style="edgeStyle=orthogonalEdgeStyle;rounded=0;orthogonalLoop=1;jettySize=auto;html=1;" edge="1" parent="1" source="mKk2eRb5SQ4jt9OMgVqi-25" target="mKk2eRb5SQ4jt9OMgVqi-29">
          <mxGeometry relative="1" as="geometry" />
        </mxCell>
        <mxCell id="mKk2eRb5SQ4jt9OMgVqi-25" value="校验试卷是否已提交" style="rhombus;whiteSpace=wrap;html=1;" vertex="1" parent="1">
          <mxGeometry x="200" y="360" width="120" height="60" as="geometry" />
        </mxCell>
        <mxCell id="mKk2eRb5SQ4jt9OMgVqi-28" value="已提交" style="text;html=1;align=center;verticalAlign=middle;resizable=0;points=[];autosize=1;strokeColor=none;fillColor=none;" vertex="1" parent="1">
          <mxGeometry x="390" y="365" width="60" height="30" as="geometry" />
        </mxCell>
        <mxCell id="mKk2eRb5SQ4jt9OMgVqi-32" value="" style="edgeStyle=orthogonalEdgeStyle;rounded=0;orthogonalLoop=1;jettySize=auto;html=1;" edge="1" parent="1" source="mKk2eRb5SQ4jt9OMgVqi-29" target="mKk2eRb5SQ4jt9OMgVqi-31">
          <mxGeometry relative="1" as="geometry" />
        </mxCell>
        <mxCell id="mKk2eRb5SQ4jt9OMgVqi-29" value="记录pending task" style="whiteSpace=wrap;html=1;" vertex="1" parent="1">
          <mxGeometry x="200" y="500" width="120" height="60" as="geometry" />
        </mxCell>
        <mxCell id="mKk2eRb5SQ4jt9OMgVqi-33" style="edgeStyle=orthogonalEdgeStyle;rounded=0;orthogonalLoop=1;jettySize=auto;html=1;entryX=0.5;entryY=1;entryDx=0;entryDy=0;" edge="1" parent="1" source="mKk2eRb5SQ4jt9OMgVqi-31" target="mKk2eRb5SQ4jt9OMgVqi-22">
          <mxGeometry relative="1" as="geometry" />
        </mxCell>
        <mxCell id="mKk2eRb5SQ4jt9OMgVqi-31" value="提交任务至MQ" style="whiteSpace=wrap;html=1;" vertex="1" parent="1">
          <mxGeometry x="200" y="620" width="120" height="60" as="geometry" />
        </mxCell>
      </root>
    </mxGraphModel>
  </diagram>
</mxfile>
